<svg width="226" height="77" viewBox="0 0 226 77" fill="none" xmlns="http://www.w3.org/2000/svg">
<path d="M86.84 59.696C86.712 60.336 86.328 60.8907 85.688 61.36C85.0907 61.7867 84.2373 62 83.128 62C82.1893 62 81.4427 61.744 80.888 61.232C80.376 60.72 80.0987 60.1867 80.056 59.632C80.312 57.84 80.44 55.152 80.44 51.568C80.44 49.4347 80.312 46.1493 80.056 41.712C79.7573 37.5307 79.608 33.8187 79.608 30.576C79.608 28.8267 79.6933 27.0347 79.864 25.2C79.864 24.6027 80.2053 23.9627 80.888 23.28C81.6133 22.5973 82.5947 22.1707 83.832 22C87.8853 21.5733 92.856 21.36 98.744 21.36H100.792C102.328 21.36 103.821 21.6373 105.272 22.192C106.765 22.7467 107.512 23.7067 107.512 25.072C107.512 25.968 107.299 26.672 106.872 27.184C106.445 27.696 105.656 27.952 104.504 27.952C103.949 27.952 103.309 27.9093 102.584 27.824C101.859 27.7387 101.347 27.6747 101.048 27.632C99.4267 27.376 98.168 27.248 97.272 27.248C92.3227 27.248 88.5893 27.5893 86.072 28.272C86.072 29.68 86.1147 31.9627 86.2 35.12L86.264 39.216C88.4827 39.216 90.4667 39.1307 92.216 38.96C93.9653 38.7467 94.968 38.6187 95.224 38.576C97.4427 38.32 98.9147 38.192 99.64 38.192C100.664 38.192 101.517 38.4267 102.2 38.896C102.925 39.3227 103.288 40.0053 103.288 40.944C103.288 43.0773 101.795 44.144 98.808 44.144C98.0827 44.144 97.4427 44.1653 96.888 44.208C96.3333 44.2507 95.864 44.2933 95.48 44.336C93.944 44.5067 92.728 44.592 91.832 44.592C89.8693 44.592 88.2053 44.656 86.84 44.784C86.84 46.3627 86.904 48.0267 87.032 49.776C87.032 50.3307 87.0533 51.184 87.096 52.336C87.1813 53.488 87.224 54.5333 87.224 55.472C87.224 56.2827 87.2027 57.0293 87.16 57.712C87.1173 58.3947 87.0107 59.056 86.84 59.696ZM109.426 40.432C109.085 40.432 108.765 40.304 108.466 40.048C108.21 39.7493 108.082 39.408 108.082 39.024C108.082 38.0427 108.509 37.1253 109.362 36.272C109.618 36.144 110.13 35.9307 110.898 35.632C111.666 35.3333 112.349 35.184 112.946 35.184C114.567 35.184 115.89 35.632 116.914 36.528C117.938 37.3813 118.45 38.6187 118.45 40.24C118.45 40.7093 118.365 41.712 118.194 43.248C118.023 45.04 117.938 46.4267 117.938 47.408C117.938 50.3947 118.343 52.8053 119.154 54.64C119.453 55.2373 119.922 55.7067 120.562 56.048C121.202 56.3893 121.778 56.56 122.29 56.56C123.527 56.56 124.53 56.3467 125.298 55.92C126.066 55.4933 126.898 54.8107 127.794 53.872C128.69 52.9333 129.266 51.8667 129.522 50.672C129.821 49.4773 130.034 47.8347 130.162 45.744C130.247 44.3787 130.333 43.376 130.418 42.736C130.631 40.688 130.738 38.9387 130.738 37.488C130.738 36.5493 130.994 35.7813 131.506 35.184C132.018 34.544 132.722 34.224 133.618 34.224C134.13 34.224 134.706 34.3947 135.346 34.736C136.029 35.0347 136.477 35.3973 136.69 35.824C136.946 36.2507 137.074 36.9547 137.074 37.936C137.074 38.448 137.01 38.9387 136.882 39.408C136.583 40.4747 136.434 41.7547 136.434 43.248L136.498 46.576C136.498 49.6053 136.711 51.8453 137.138 53.296C137.351 53.9787 137.65 54.6827 138.034 55.408C138.418 56.0907 138.781 56.6667 139.122 57.136C139.975 58.0747 140.53 58.736 140.786 59.12C141.042 59.4613 141.17 59.8027 141.17 60.144C141.17 60.656 140.914 61.1467 140.402 61.616C139.933 62.0427 139.421 62.256 138.866 62.256C137.287 62.256 135.922 61.7227 134.77 60.656C133.618 59.5893 132.765 58.2027 132.21 56.496C130.759 58.16 129.415 59.504 128.178 60.528C127.325 61.1253 126.279 61.5733 125.042 61.872C123.805 62.128 122.567 62.256 121.33 62.256C119.666 62.256 117.981 61.5733 116.274 60.208C114.567 58.8427 113.415 57.264 112.818 55.472C112.775 55.3867 112.647 55.0453 112.434 54.448C112.263 53.8507 112.178 52.9547 112.178 51.76C112.178 50.1813 112.263 48.1973 112.434 45.808C112.562 44.272 112.626 42.864 112.626 41.584C112.626 41.2 112.477 40.88 112.178 40.624C111.922 40.368 111.623 40.24 111.282 40.24C111.026 40.24 110.727 40.2827 110.386 40.368C110.087 40.4107 109.767 40.432 109.426 40.432ZM175.201 57.072C175.414 57.1573 175.756 57.264 176.225 57.392C176.694 57.52 177.036 57.648 177.249 57.776C177.462 57.904 177.569 58.096 177.569 58.352C177.612 59.376 177.228 60.2293 176.417 60.912C175.649 61.552 174.732 61.872 173.665 61.872C172.001 61.872 170.7 61.424 169.761 60.528C168.822 59.632 168.14 58.2667 167.713 56.432C167.542 55.7067 167.457 54.704 167.457 53.424C167.457 52.6987 167.5 51.5253 167.585 49.904C167.67 48.1973 167.713 46.832 167.713 45.808C167.713 44.3147 167.286 43.0133 166.433 41.904C165.622 40.752 164.47 40.176 162.977 40.176C162.081 40.176 161.142 40.4533 160.161 41.008C159.18 41.52 158.497 42.16 158.113 42.928C157.473 44.1653 157.025 45.5093 156.769 46.96C156.3 49.52 156.065 52.1867 156.065 54.96C156.065 56.2827 156.086 57.3067 156.129 58.032C156.129 58.2027 156.129 58.544 156.129 59.056C156.172 59.5253 156.129 59.9733 156.001 60.4C155.916 60.784 155.745 61.1467 155.489 61.488C155.276 61.7013 154.934 61.872 154.465 62C154.038 62.1707 153.633 62.256 153.249 62.256C152.652 62.256 151.905 62 151.009 61.488C150.113 60.976 149.601 60.4 149.473 59.76L149.409 58.672C149.409 58.288 149.452 57.84 149.537 57.328C150.049 54.3413 150.305 51.7387 150.305 49.52C150.305 48.5387 150.284 47.7707 150.241 47.216L150.177 44.208C150.177 43.184 149.921 42.2027 149.409 41.264C148.897 40.2827 148.3 39.792 147.617 39.792C147.404 39.792 147.105 39.8773 146.721 40.048C146.337 40.176 146.017 40.24 145.761 40.24C145.334 40.24 144.865 40.0267 144.353 39.6C143.884 39.1733 143.649 38.7253 143.649 38.256C143.649 37.36 143.948 36.6347 144.545 36.08C145.185 35.568 145.804 35.1627 146.401 34.864C147.041 34.5653 147.766 34.416 148.577 34.416C149.26 34.416 149.814 34.48 150.241 34.608C150.668 34.736 151.244 35.0133 151.969 35.44C152.353 35.6533 152.801 36.1227 153.313 36.848C153.825 37.5733 154.252 38.5973 154.593 39.92C155.702 37.872 157.068 36.4427 158.689 35.632C160.353 34.7787 162.465 34.352 165.025 34.352C166.006 34.352 167.052 34.672 168.161 35.312C169.313 35.952 170.294 36.6987 171.105 37.552C171.873 38.4907 172.513 39.664 173.025 41.072C173.537 42.4373 173.793 43.6747 173.793 44.784C173.793 45.424 173.75 46.4693 173.665 47.92C173.537 49.072 173.473 50.288 173.473 51.568C173.473 54.5547 174.049 56.3893 175.201 57.072ZM206.781 45.936C206.781 47.8987 206.29 49.5627 205.309 50.928C204.327 52.2507 203.026 53.424 201.405 54.448C199.186 55.6427 196.605 56.2613 193.661 56.304C193.49 56.816 193.405 57.3493 193.405 57.904C193.405 58.416 193.682 58.8 194.237 59.056C194.834 59.2693 195.879 59.44 197.373 59.568C198.61 59.6533 199.997 59.9307 201.533 60.4C203.111 60.8267 204.349 61.3173 205.245 61.872C206.354 62.6827 207.122 63.5573 207.549 64.496C208.018 65.4347 208.253 66.608 208.253 68.016C208.253 69.8507 207.399 71.3867 205.693 72.624C204.029 73.904 202.066 74.8427 199.805 75.44C197.543 76.0373 195.559 76.336 193.853 76.336C191.805 76.336 190.055 76.08 188.605 75.568C187.197 75.0987 185.853 74.4373 184.573 73.584C183.677 72.944 182.973 72.1333 182.461 71.152C181.949 70.1707 181.693 69.1467 181.693 68.08C181.693 67.0133 182.034 65.9893 182.717 65.008C183.442 64.0267 184.317 63.1733 185.341 62.448C186.365 61.7653 187.325 61.296 188.22 61.04C187.879 60.6133 187.623 60.2507 187.453 59.952C187.325 59.6107 187.26 59.2267 187.26 58.8C187.26 57.3493 187.623 56.1333 188.349 55.152C186.301 54.4693 184.679 53.2533 183.485 51.504C182.333 49.7547 181.757 47.7067 181.757 45.36C181.757 43.824 182.119 42.4373 182.845 41.2C183.57 39.92 184.573 38.704 185.853 37.552C188.029 35.5893 191.037 34.608 194.877 34.608C195.389 34.608 196.093 34.6933 196.989 34.864C197.885 35.0347 198.759 35.2693 199.613 35.568C200.978 34.9707 202.578 34.352 204.413 33.712C206.247 33.072 207.485 32.752 208.125 32.752C209.106 32.752 209.831 32.9227 210.301 33.264C210.813 33.5627 211.069 34.2453 211.069 35.312C211.069 36.2933 210.493 36.9973 209.341 37.424C208.231 37.8507 206.546 38.256 204.285 38.64C205.949 40.6453 206.781 43.0773 206.781 45.936ZM193.469 51.056C195.943 51.056 197.735 50.544 198.845 49.52C199.997 48.496 200.573 46.96 200.573 44.912C200.573 41.5413 198.589 39.856 194.621 39.856C193.085 39.856 191.869 40.0267 190.973 40.368C190.119 40.7093 189.415 41.2853 188.861 42.096C188.093 43.12 187.709 44.5067 187.709 46.256C187.709 47.6213 188.263 48.7733 189.373 49.712C190.525 50.608 191.89 51.056 193.469 51.056ZM187.709 68.528C187.709 69.2533 188.37 69.872 189.693 70.384C191.058 70.9387 192.509 71.216 194.045 71.216C195.751 71.216 197.501 70.896 199.293 70.256C201.127 69.6587 202.045 68.848 202.045 67.824C202.045 66.3307 200.722 65.3707 198.077 64.944C197.138 64.7733 195.773 64.4533 193.981 63.984C193.767 63.9413 193.511 63.8773 193.213 63.792C192.957 63.7067 192.679 63.6213 192.381 63.536C191.442 63.8773 190.418 64.5813 189.309 65.648C188.242 66.7573 187.709 67.7173 187.709 68.528Z" fill="black"/>
<path d="M56.7514 45.6251C56.7514 52.8854 53.8672 59.8483 48.7332 64.9821C43.5993 70.1159 36.6362 73 29.3757 73C22.1152 73 15.1521 70.1159 10.0182 64.9821C4.88422 59.8483 2 52.8854 2 45.6251C2 38.3648 4.88422 31.4019 10.0182 26.2681C15.1521 21.1343 22.1152 18.2501 29.3757 18.2501C36.6362 18.2501 43.5993 21.1343 48.7332 26.2681C53.8672 31.4019 56.7514 38.3648 56.7514 45.6251ZM60.3321 1.28864C60.4822 0.908615 60.7431 0.58251 61.0809 0.3527C61.4188 0.12289 61.8179 0 62.2265 0C62.6351 0 63.0342 0.12289 63.3721 0.3527C63.7099 0.58251 63.9708 0.908615 64.1209 1.28864L66.5081 7.34763C66.7161 7.86958 67.1286 8.28567 67.6578 8.49372L73.7133 10.8808C75.4289 11.5597 75.4289 13.9906 73.7133 14.6695L67.6542 17.0566C67.3947 17.1598 67.1592 17.3151 66.9621 17.5128C66.765 17.7106 66.6104 17.9466 66.5081 18.2063L64.1209 24.2617C63.9708 24.6417 63.7099 24.9678 63.3721 25.1976C63.0342 25.4274 62.6351 25.5503 62.2265 25.5503C61.8179 25.5503 61.4188 25.4274 61.0809 25.1976C60.7431 24.9678 60.4822 24.6417 60.3321 24.2617L57.9449 18.2027C57.8417 17.9433 57.6865 17.7077 57.4887 17.5106C57.291 17.3135 57.0549 17.159 56.7952 17.0566L50.7397 14.6695C50.3596 14.5194 50.0335 14.2585 49.8037 13.9207C49.5739 13.5829 49.451 13.1837 49.451 12.7752C49.451 12.3666 49.5739 11.9674 49.8037 11.6296C50.0335 11.2918 50.3596 11.0309 50.7397 10.8808L56.7988 8.49372C57.0583 8.39052 57.2938 8.23526 57.4909 8.03751C57.688 7.83977 57.8426 7.60374 57.9449 7.34398L60.3321 1.28864ZM53.1633 25.7071L55.9009 22.9696L54.8059 20.1956L52.0318 19.1006L49.2942 21.8381C50.6983 23.0134 51.988 24.303 53.1633 25.7071Z" fill="black"/>
</svg>
